<svg width="18" height="18" viewBox="0 0 18 18" fill="none" xmlns="http://www.w3.org/2000/svg">
<g clip-path="url(#clip0_413_99)">
<path d="M12 12C12 12.1989 11.921 12.3897 11.7803 12.5303C11.6397 12.671 11.4489 12.75 11.25 12.75H9.75V14.25C9.75 14.4489 9.67098 14.6397 9.53033 14.7803C9.38968 14.921 9.19891 15 9 15C8.80109 15 8.61032 14.921 8.46967 14.7803C8.32902 14.6397 8.25 14.4489 8.25 14.25V12.75H6.75C6.55109 12.75 6.36032 12.671 6.21967 12.5303C6.07902 12.3897 6 12.1989 6 12C6 11.8011 6.07902 11.6103 6.21967 11.4697C6.36032 11.329 6.55109 11.25 6.75 11.25H8.25V9.75002C8.25 9.5511 8.32902 9.36034 8.46967 9.21969C8.61032 9.07903 8.80109 9.00002 9 9.00002C9.19891 9.00002 9.38968 9.07903 9.53033 9.21969C9.67098 9.36034 9.75 9.5511 9.75 9.75002V11.25H11.25C11.4489 11.25 11.6397 11.329 11.7803 11.4697C11.921 11.6103 12 11.8011 12 12ZM16.5 7.86377V14.25C16.4988 15.2442 16.1033 16.1973 15.4003 16.9004C14.6973 17.6034 13.7442 17.9988 12.75 18H5.25C4.2558 17.9988 3.30267 17.6034 2.59966 16.9004C1.89666 16.1973 1.50119 15.2442 1.5 14.25V3.75002C1.50119 2.75582 1.89666 1.80269 2.59966 1.09968C3.30267 0.396679 4.2558 0.00120818 5.25 1.72865e-05H8.63625C9.32596 -0.00175791 10.0092 0.133208 10.6464 0.397112C11.2836 0.661015 11.8622 1.04862 12.3488 1.53752L14.9618 4.15202C15.4509 4.6382 15.8388 5.21661 16.1028 5.85375C16.3669 6.49089 16.5019 7.17408 16.5 7.86377ZM11.2882 2.59802C11.0522 2.36939 10.7872 2.17271 10.5 2.01302V5.25002C10.5 5.44893 10.579 5.63969 10.7197 5.78035C10.8603 5.921 11.0511 6.00002 11.25 6.00002H14.487C14.3272 5.71291 14.1303 5.44813 13.9012 5.21252L11.2882 2.59802ZM15 7.86377C15 7.74002 14.976 7.62152 14.9647 7.50002H11.25C10.6533 7.50002 10.081 7.26296 9.65901 6.84101C9.23705 6.41905 9 5.84675 9 5.25002V1.53527C8.8785 1.52402 8.75925 1.50002 8.63625 1.50002H5.25C4.65326 1.50002 4.08097 1.73707 3.65901 2.15903C3.23705 2.58098 3 3.15328 3 3.75002V14.25C3 14.8468 3.23705 15.4191 3.65901 15.841C4.08097 16.263 4.65326 16.5 5.25 16.5H12.75C13.3467 16.5 13.919 16.263 14.341 15.841C14.7629 15.4191 15 14.8468 15 14.25V7.86377Z" fill="#777980"/>
</g>
<defs>
<clipPath id="clip0_413_99">
<rect width="18" height="18" fill="white"/>
</clipPath>
</defs>
</svg>
