<svg width="14" height="14" viewBox="0 0 14 14" fill="none" xmlns="http://www.w3.org/2000/svg">
<g clip-path="url(#clip0_413_4694)">
<path d="M10.4997 0H4.66634C4.09948 0.000745719 3.54512 0.166661 3.07105 0.477458C2.59698 0.788254 2.22375 1.23046 1.99701 1.75H1.16634C1.01163 1.75 0.863258 1.81146 0.753862 1.92085C0.644466 2.03025 0.583008 2.17862 0.583008 2.33333C0.583008 2.48804 0.644466 2.63642 0.753862 2.74581C0.863258 2.85521 1.01163 2.91667 1.16634 2.91667H1.74967V4.08333H1.16634C1.01163 4.08333 0.863258 4.14479 0.753862 4.25419C0.644466 4.36358 0.583008 4.51196 0.583008 4.66667C0.583008 4.82138 0.644466 4.96975 0.753862 5.07915C0.863258 5.18854 1.01163 5.25 1.16634 5.25H1.74967V6.41667H1.16634C1.01163 6.41667 0.863258 6.47812 0.753862 6.58752C0.644466 6.69692 0.583008 6.84529 0.583008 7C0.583008 7.15471 0.644466 7.30308 0.753862 7.41248C0.863258 7.52187 1.01163 7.58333 1.16634 7.58333H1.74967V8.75H1.16634C1.01163 8.75 0.863258 8.81146 0.753862 8.92085C0.644466 9.03025 0.583008 9.17862 0.583008 9.33333C0.583008 9.48804 0.644466 9.63642 0.753862 9.74581C0.863258 9.85521 1.01163 9.91667 1.16634 9.91667H1.74967V11.0833H1.16634C1.01163 11.0833 0.863258 11.1448 0.753862 11.2542C0.644466 11.3636 0.583008 11.512 0.583008 11.6667C0.583008 11.8214 0.644466 11.9697 0.753862 12.0791C0.863258 12.1885 1.01163 12.25 1.16634 12.25H1.99701C2.22375 12.7695 2.59698 13.2117 3.07105 13.5225C3.54512 13.8333 4.09948 13.9993 4.66634 14H10.4997C11.2729 13.9991 12.0143 13.6915 12.561 13.1447C13.1078 12.5979 13.4154 11.8566 13.4163 11.0833V2.91667C13.4154 2.1434 13.1078 1.40208 12.561 0.855295C12.0143 0.308514 11.2729 0.00092625 10.4997 0V0ZM12.2497 11.0833C12.2497 11.5475 12.0653 11.9926 11.7371 12.3208C11.4089 12.649 10.9638 12.8333 10.4997 12.8333H4.66634C4.20221 12.8333 3.75709 12.649 3.4289 12.3208C3.10072 11.9926 2.91634 11.5475 2.91634 11.0833V2.91667C2.91634 2.45254 3.10072 2.00742 3.4289 1.67923C3.75709 1.35104 4.20221 1.16667 4.66634 1.16667H10.4997C10.9638 1.16667 11.4089 1.35104 11.7371 1.67923C12.0653 2.00742 12.2497 2.45254 12.2497 2.91667V11.0833ZM7.58301 7C8.04714 7 8.49226 6.81563 8.82045 6.48744C9.14863 6.15925 9.33301 5.71413 9.33301 5.25C9.33301 4.78587 9.14863 4.34075 8.82045 4.01256C8.49226 3.68437 8.04714 3.5 7.58301 3.5C7.11888 3.5 6.67376 3.68437 6.34557 4.01256C6.01738 4.34075 5.83301 4.78587 5.83301 5.25C5.83301 5.71413 6.01738 6.15925 6.34557 6.48744C6.67376 6.81563 7.11888 7 7.58301 7ZM10.4997 10.5C10.4997 10.6547 10.4382 10.8031 10.3288 10.9125C10.2194 11.0219 10.0711 11.0833 9.91634 11.0833C9.76163 11.0833 9.61326 11.0219 9.50386 10.9125C9.39447 10.8031 9.33301 10.6547 9.33301 10.5C9.33301 10.0359 9.14863 9.59075 8.82045 9.26256C8.49226 8.93437 8.04714 8.75 7.58301 8.75C7.11888 8.75 6.67376 8.93437 6.34557 9.26256C6.01738 9.59075 5.83301 10.0359 5.83301 10.5C5.83301 10.6547 5.77155 10.8031 5.66215 10.9125C5.55276 11.0219 5.40438 11.0833 5.24967 11.0833C5.09496 11.0833 4.94659 11.0219 4.8372 10.9125C4.7278 10.8031 4.66634 10.6547 4.66634 10.5C4.78942 6.64533 10.3778 6.6465 10.4997 10.5Z" fill="#241E26"/>
</g>
<defs>
<clipPath id="clip0_413_4694">
<rect width="14" height="14" fill="white"/>
</clipPath>
</defs>
</svg>
