<svg width="7" height="4" viewBox="0 0 7 4" fill="none" xmlns="http://www.w3.org/2000/svg">
<path d="M6.57513 0.262893C6.53252 0.219935 6.48183 0.185837 6.42598 0.162568C6.37013 0.139299 6.31022 0.127319 6.24971 0.127319C6.18921 0.127319 6.1293 0.139299 6.07345 0.162568C6.0176 0.185837 5.9669 0.219935 5.9243 0.262893L3.82513 2.36206C3.78252 2.40501 3.73183 2.43911 3.67598 2.46238C3.62012 2.48565 3.56022 2.49763 3.49971 2.49763C3.43921 2.49763 3.3793 2.48565 3.32345 2.46238C3.2676 2.43911 3.2169 2.40501 3.1743 2.36206L1.07513 0.262893C1.03252 0.219935 0.981829 0.185837 0.925977 0.162568C0.870124 0.139299 0.810218 0.127319 0.749712 0.127319C0.689207 0.127319 0.6293 0.139299 0.573448 0.162568C0.517596 0.185837 0.466904 0.219935 0.424296 0.262893C0.33893 0.348768 0.291016 0.464933 0.291016 0.586018C0.291016 0.707103 0.33893 0.823268 0.424296 0.909142L2.52805 3.01289C2.78586 3.27038 3.13534 3.41501 3.49971 3.41501C3.86409 3.41501 4.21357 3.27038 4.47138 3.01289L6.57513 0.909142C6.66049 0.823268 6.70841 0.707103 6.70841 0.586018C6.70841 0.464933 6.66049 0.348768 6.57513 0.262893Z" fill="#777980"/>
</svg>
