<svg width="14" height="15" viewBox="0 0 14 15" fill="none" xmlns="http://www.w3.org/2000/svg">
<g clip-path="url(#clip0_265_6792)">
<path d="M11.0833 1.08325H2.91667C2.1434 1.08418 1.40208 1.39177 0.855295 1.93855C0.308514 2.48533 0.00092625 3.22666 0 3.99992L0 10.9999C0.00092625 11.7732 0.308514 12.5145 0.855295 13.0613C1.40208 13.6081 2.1434 13.9157 2.91667 13.9166H11.0833C11.8566 13.9157 12.5979 13.6081 13.1447 13.0613C13.6915 12.5145 13.9991 11.7732 14 10.9999V3.99992C13.9991 3.22666 13.6915 2.48533 13.1447 1.93855C12.5979 1.39177 11.8566 1.08418 11.0833 1.08325ZM2.91667 2.24992H11.0833C11.4326 2.25061 11.7737 2.3558 12.0627 2.55197C12.3517 2.74814 12.5754 3.0263 12.705 3.35067L8.23783 7.81842C7.90908 8.14585 7.46399 8.32969 7 8.32969C6.53601 8.32969 6.09092 8.14585 5.76217 7.81842L1.295 3.35067C1.42459 3.0263 1.64827 2.74814 1.93728 2.55197C2.22628 2.3558 2.56738 2.25061 2.91667 2.24992ZM11.0833 12.7499H2.91667C2.45254 12.7499 2.00742 12.5655 1.67923 12.2374C1.35104 11.9092 1.16667 11.464 1.16667 10.9999V4.87492L4.93733 8.64325C5.48487 9.1894 6.22665 9.49611 7 9.49611C7.77335 9.49611 8.51513 9.1894 9.06267 8.64325L12.8333 4.87492V10.9999C12.8333 11.464 12.649 11.9092 12.3208 12.2374C11.9926 12.5655 11.5475 12.7499 11.0833 12.7499Z" fill="#D2D2D5"/>
</g>
<defs>
<clipPath id="clip0_265_6792">
<rect width="14" height="14" fill="white" transform="translate(0 0.5)"/>
</clipPath>
</defs>
</svg>
