<svg width="14" height="15" viewBox="0 0 14 15" fill="none" xmlns="http://www.w3.org/2000/svg">
<g clip-path="url(#clip0_265_6803)">
<path d="M13.5749 5.99433C13.0483 5.132 12.384 4.36173 11.6085 3.71408L13.2418 2.08074C13.3481 1.97073 13.4069 1.82338 13.4055 1.67043C13.4042 1.51748 13.3429 1.37117 13.2347 1.26302C13.1266 1.15486 12.9803 1.09351 12.8273 1.09219C12.6744 1.09086 12.527 1.14965 12.417 1.25591L10.6407 3.03449C9.53963 2.38047 8.28081 2.0396 7.00015 2.04866C3.38874 2.04866 1.33074 4.52083 0.425402 5.99433C0.14571 6.44671 -0.00244141 6.96805 -0.00244141 7.49991C-0.00244141 8.03177 0.14571 8.55312 0.425402 9.00549C0.95201 9.86782 1.61627 10.6381 2.39182 11.2857L0.758485 12.9191C0.702771 12.9729 0.658331 13.0373 0.62776 13.1084C0.597188 13.1796 0.581096 13.2561 0.580423 13.3336C0.579749 13.411 0.594509 13.4879 0.623839 13.5596C0.65317 13.6312 0.696484 13.6964 0.751255 13.7511C0.806026 13.8059 0.871156 13.8492 0.942845 13.8786C1.01453 13.9079 1.09135 13.9226 1.1688 13.922C1.24626 13.9213 1.3228 13.9052 1.39397 13.8746C1.46514 13.8441 1.52951 13.7996 1.58332 13.7439L3.36365 11.9636C4.46339 12.6175 5.72071 12.959 7.00015 12.9512C10.6116 12.9512 12.6696 10.479 13.5749 9.00549C13.8546 8.55312 14.0027 8.03177 14.0027 7.49991C14.0027 6.96805 13.8546 6.44671 13.5749 5.99433ZM1.4194 8.39474C1.25323 8.12585 1.16521 7.816 1.16521 7.49991C1.16521 7.18382 1.25323 6.87397 1.4194 6.60508C2.19757 5.34158 3.95632 3.21533 7.00015 3.21533C7.96864 3.2099 8.92354 3.44332 9.78032 3.89491L8.60607 5.06916C8.04603 4.69735 7.3746 4.53074 6.7057 4.59762C6.03681 4.6645 5.41166 4.96074 4.93632 5.43608C4.46098 5.91142 4.16474 6.53657 4.09786 7.20546C4.03098 7.87436 4.19759 8.54579 4.5694 9.10583L3.2219 10.4533C2.50738 9.87566 1.89764 9.1793 1.4194 8.39474ZM8.75015 7.49991C8.75015 7.96404 8.56578 8.40916 8.23759 8.73735C7.9094 9.06554 7.46428 9.24991 7.00015 9.24991C6.74028 9.24891 6.48402 9.18908 6.25057 9.07491L8.57515 6.75033C8.68932 6.98378 8.74915 7.24004 8.75015 7.49991ZM5.25015 7.49991C5.25015 7.03578 5.43453 6.59066 5.76271 6.26247C6.0909 5.93429 6.53602 5.74991 7.00015 5.74991C7.26002 5.75092 7.51629 5.81075 7.74973 5.92491L5.42515 8.24949C5.31099 8.01605 5.25116 7.75978 5.25015 7.49991ZM12.5809 8.39474C11.8027 9.65825 10.044 11.7845 7.00015 11.7845C6.03166 11.7899 5.07676 11.5565 4.21999 11.1049L5.39424 9.93066C5.95427 10.3025 6.62571 10.4691 7.2946 10.4022C7.96349 10.3353 8.58865 10.0391 9.06398 9.56374C9.53932 9.08841 9.83556 8.46325 9.90244 7.79436C9.96932 7.12547 9.80272 6.45403 9.4309 5.89399L10.7784 4.54649C11.4929 5.12416 12.1027 5.82052 12.5809 6.60508C12.7471 6.87397 12.8351 7.18382 12.8351 7.49991C12.8351 7.816 12.7471 8.12585 12.5809 8.39474Z" fill="#D2D2D5"/>
</g>
<defs>
<clipPath id="clip0_265_6803">
<rect width="14" height="14" fill="white" transform="translate(0 0.5)"/>
</clipPath>
</defs>
</svg>
