<svg width="18" height="18" viewBox="0 0 18 18" fill="none" xmlns="http://www.w3.org/2000/svg">
<g clip-path="url(#clip0_265_6819)">
<path d="M3.98918 10.8776L3.36263 13.2166L1.07258 13.2651C0.388195 11.9957 0 10.5433 0 8.99998C0 7.50756 0.362953 6.10018 1.00631 4.86096H1.0068L3.04559 5.23474L3.9387 7.26129C3.75177 7.80625 3.64989 8.39125 3.64989 8.99998C3.64996 9.66063 3.76963 10.2936 3.98918 10.8776Z" fill="#FBBB00"/>
<path d="M17.8426 7.31891C17.946 7.86334 17.9999 8.42559 17.9999 9.00022C17.9999 9.64456 17.9321 10.2731 17.8031 10.8794C17.365 12.9424 16.2202 14.7439 14.6343 16.0187L14.6338 16.0182L12.0659 15.8872L11.7024 13.6184C12.7547 13.0013 13.5771 12.0355 14.0103 10.8794H9.19775V7.31891H14.0805H17.8426Z" fill="#518EF8"/>
<path d="M14.6336 16.0179L14.6341 16.0184C13.0917 17.2581 11.1325 17.9998 8.99968 17.9998C5.57227 17.9998 2.59239 16.0841 1.07227 13.265L3.98886 10.8775C4.74891 12.9059 6.70567 14.3499 8.99968 14.3499C9.98571 14.3499 10.9095 14.0834 11.7021 13.618L14.6336 16.0179Z" fill="#28B446"/>
<path d="M14.7447 2.07197L11.8291 4.45894C11.0087 3.94615 10.039 3.64992 9.00003 3.64992C6.65409 3.64992 4.66073 5.16013 3.93877 7.26131L1.00684 4.86098H1.00635C2.50421 1.97307 5.52168 0 9.00003 0C11.1838 0 13.186 0.777867 14.7447 2.07197Z" fill="#F14336"/>
</g>
<defs>
<clipPath id="clip0_265_6819">
<rect width="18" height="18" fill="white"/>
</clipPath>
</defs>
</svg>
