<svg width="14" height="15" viewBox="0 0 14 15" fill="none" xmlns="http://www.w3.org/2000/svg">
<g clip-path="url(#clip0_413_4729)">
<path d="M12.3404 12.016C13.4117 10.7553 13.9999 9.15479 13.9999 7.50039C13.9999 5.84599 13.4117 4.24548 12.3404 2.98481L12.842 2.48314C12.9514 2.37368 13.0128 2.22526 13.0128 2.07052C13.0127 1.91578 12.9512 1.7674 12.8418 1.65802C12.7323 1.54864 12.5839 1.48722 12.4291 1.48727C12.2744 1.48733 12.126 1.54885 12.0166 1.65831L11.515 2.15997C10.2543 1.08864 8.65378 0.500427 6.99938 0.500427C5.34498 0.500427 3.74447 1.08864 2.4838 2.15997L1.98213 1.65831C1.87204 1.55212 1.72464 1.49343 1.57169 1.49486C1.41875 1.4963 1.27248 1.55775 1.1644 1.66599C1.05632 1.77422 0.995077 1.92057 0.993857 2.07352C0.992637 2.22647 1.05154 2.37378 1.15788 2.48372L1.65955 2.98539C0.588212 4.24606 0 5.84657 0 7.50097C0 9.15538 0.588212 10.7559 1.65955 12.0166L1.15788 12.5182C1.1022 12.5721 1.05781 12.6365 1.02729 12.7077C0.996771 12.7789 0.980734 12.8554 0.980116 12.9329C0.979498 13.0103 0.994312 13.0871 1.02369 13.1588C1.05307 13.2305 1.09643 13.2956 1.15124 13.3503C1.20605 13.405 1.27121 13.4483 1.34292 13.4776C1.41463 13.5068 1.49145 13.5216 1.56891 13.5208C1.64636 13.5201 1.72289 13.504 1.79404 13.4733C1.86519 13.4427 1.92952 13.3982 1.9833 13.3425L2.48496 12.8408C3.74563 13.9121 5.34614 14.5004 7.00055 14.5004C8.65495 14.5004 10.2555 13.9121 11.5161 12.8408L12.0178 13.3425C12.1279 13.4487 12.2753 13.5074 12.4282 13.5059C12.5812 13.5045 12.7274 13.443 12.8355 13.3348C12.9436 13.2266 13.0048 13.0802 13.0061 12.9273C13.0073 12.7743 12.9484 12.627 12.842 12.5171L12.3404 12.016ZM12.8333 7.50039C12.8344 8.84583 12.3679 10.1498 11.5138 11.1894L9.43071 9.10631C9.74754 8.63065 9.9166 8.07191 9.9166 7.50039C9.9166 6.92887 9.74754 6.37013 9.43071 5.89447L11.5138 3.81139C12.3679 4.85093 12.8344 6.15495 12.8333 7.50039ZM5.24996 7.50039C5.24996 7.15427 5.3526 6.81593 5.54489 6.52814C5.73718 6.24036 6.0105 6.01605 6.33027 5.8836C6.65004 5.75115 7.0019 5.71649 7.34137 5.78402C7.68084 5.85154 7.99266 6.01821 8.2374 6.26295C8.48214 6.5077 8.64881 6.81952 8.71634 7.15898C8.78386 7.49845 8.74921 7.85032 8.61675 8.17009C8.4843 8.48986 8.26 8.76317 7.97221 8.95546C7.68442 9.14775 7.34608 9.25039 6.99996 9.25039C6.53583 9.25039 6.09071 9.06602 5.76253 8.73783C5.43434 8.40964 5.24996 7.96452 5.24996 7.50039ZM6.99996 1.66706C8.3454 1.66598 9.64942 2.13241 10.689 2.98656L8.60588 5.06964C8.13022 4.75281 7.57148 4.58376 6.99996 4.58376C6.42845 4.58376 5.8697 4.75281 5.39405 5.06964L3.31096 2.98656C4.35051 2.13241 5.65452 1.66598 6.99996 1.66706ZM1.16663 7.50039C1.16556 6.15495 1.63198 4.85093 2.48613 3.81139L4.56921 5.89447C4.25238 6.37013 4.08333 6.92887 4.08333 7.50039C4.08333 8.07191 4.25238 8.63065 4.56921 9.10631L2.48613 11.1894C1.63198 10.1498 1.16556 8.84583 1.16663 7.50039ZM6.99996 13.3337C5.65452 13.3348 4.35051 12.8684 3.31096 12.0142L5.39405 9.93114C5.8697 10.248 6.42845 10.417 6.99996 10.417C7.57148 10.417 8.13022 10.248 8.60588 9.93114L10.689 12.0142C9.64942 12.8684 8.3454 13.3348 6.99996 13.3337Z" fill="#241E26"/>
</g>
<defs>
<clipPath id="clip0_413_4729">
<rect width="14" height="14" fill="white" transform="translate(0 0.5)"/>
</clipPath>
</defs>
</svg>
