<svg width="34" height="34" viewBox="0 0 34 34" fill="none" xmlns="http://www.w3.org/2000/svg">
<rect x="0.5" y="0.5" width="33" height="33" rx="16.5" fill="#D2D2D5"/>
<rect x="0.5" y="0.5" width="33" height="33" rx="16.5" stroke="#D2D2D5"/>
<path d="M23 17C22.9951 16.4739 22.7832 15.9709 22.41 15.6L18.12 11.3C17.9326 11.1138 17.6792 11.0092 17.415 11.0092C17.1508 11.0092 16.8974 11.1138 16.71 11.3C16.6163 11.393 16.5419 11.5036 16.4911 11.6254C16.4403 11.7473 16.4142 11.878 16.4142 12.01C16.4142 12.142 16.4403 12.2727 16.4911 12.3946C16.5419 12.5164 16.6163 12.627 16.71 12.72L20 16H10C9.73478 16 9.48043 16.1054 9.29289 16.2929C9.10536 16.4804 9 16.7348 9 17C9 17.2652 9.10536 17.5196 9.29289 17.7071C9.48043 17.8946 9.73478 18 10 18H20L16.71 21.29C16.5217 21.477 16.4154 21.7311 16.4144 21.9965C16.4135 22.2618 16.518 22.5167 16.705 22.705C16.892 22.8933 17.1461 22.9996 17.4115 23.0006C17.6768 23.0015 17.9317 22.897 18.12 22.71L22.41 18.41C22.7856 18.0367 22.9978 17.5296 23 17Z" fill="white"/>
</svg>
