<svg width="14" height="14" viewBox="0 0 14 14" fill="none" xmlns="http://www.w3.org/2000/svg">
<g clip-path="url(#clip0_413_85)">
<path d="M13.2843 4.50416C13.0107 4.18893 12.6726 3.93615 12.2929 3.76295C11.9132 3.58974 11.5007 3.50015 11.0833 3.50024H8.75642L8.95242 2.30966C9.02177 1.89039 8.9381 1.46017 8.71667 1.09746C8.49524 0.734741 8.15081 0.463706 7.7462 0.333786C7.34158 0.203865 6.90375 0.223716 6.51255 0.389718C6.12136 0.555719 5.80286 0.85681 5.61517 1.23807L4.49867 3.50024H2.91667C2.1434 3.50117 1.40208 3.80875 0.855295 4.35554C0.308514 4.90232 0.00092625 5.64364 0 6.41691L0 9.33357C0.00092625 10.1068 0.308514 10.8482 0.855295 11.3949C1.40208 11.9417 2.1434 12.2493 2.91667 12.2502H10.675C11.377 12.2474 12.0547 11.9926 12.5847 11.5322C13.1147 11.0719 13.4619 10.4366 13.5631 9.74191L13.9743 6.82524C14.0322 6.4115 14.0006 5.99015 13.8815 5.5897C13.7625 5.18925 13.5588 4.81905 13.2843 4.50416ZM1.16667 9.33357V6.41691C1.16667 5.95278 1.35104 5.50766 1.67923 5.17947C2.00742 4.85128 2.45254 4.66691 2.91667 4.66691H4.08333V11.0836H2.91667C2.45254 11.0836 2.00742 10.8992 1.67923 10.571C1.35104 10.2428 1.16667 9.7977 1.16667 9.33357ZM12.8164 6.66132L12.4046 9.57799C12.3444 9.99448 12.1367 10.3755 11.8193 10.6518C11.5019 10.9281 11.0958 11.0813 10.675 11.0836H5.25V4.51174C5.30497 4.46385 5.35048 4.40607 5.38417 4.34141L6.66108 1.75432C6.70897 1.66795 6.77667 1.59417 6.85862 1.53905C6.94056 1.48393 7.03442 1.44904 7.13248 1.43726C7.23053 1.42547 7.32998 1.43712 7.42266 1.47125C7.51534 1.50538 7.59859 1.56101 7.66558 1.63357C7.72289 1.70022 7.76479 1.77869 7.78829 1.86339C7.81178 1.94809 7.81629 2.03693 7.8015 2.12357L7.4935 3.99024C7.47998 4.07365 7.48474 4.15899 7.50745 4.24038C7.53017 4.32176 7.57029 4.39724 7.62504 4.46159C7.6798 4.52594 7.74788 4.57763 7.82458 4.61308C7.90127 4.64853 7.98476 4.6669 8.06925 4.66691H11.0833C11.3338 4.66687 11.5814 4.72061 11.8093 4.82449C12.0372 4.92837 12.2402 5.07997 12.4045 5.26904C12.5688 5.45812 12.6906 5.68026 12.7617 5.92045C12.8327 6.16065 12.8514 6.41329 12.8164 6.66132Z" fill="#777980"/>
</g>
<defs>
<clipPath id="clip0_413_85">
<rect width="14" height="14" fill="white"/>
</clipPath>
</defs>
</svg>
