<svg width="14" height="15" viewBox="0 0 14 15" fill="none" xmlns="http://www.w3.org/2000/svg">
<g clip-path="url(#clip0_265_6800)">
<path d="M4.37807 14.4998C3.32209 14.4991 2.30199 14.1165 1.506 13.4226C0.71001 12.7287 0.191854 11.7703 0.0471447 10.7243C-0.0975648 9.67829 0.140938 8.61523 0.718642 7.73129C1.29635 6.84735 2.17427 6.20219 3.1904 5.91485C3.92897 5.70335 4.71074 5.69368 5.45432 5.88685L10.0673 1.27502C10.3122 1.02843 10.6036 0.832929 10.9247 0.699848C11.2457 0.566767 11.59 0.498758 11.9375 0.499767C12.4844 0.50023 13.0088 0.717695 13.3955 1.10442C13.7822 1.49114 13.9997 2.01552 14.0001 2.56243C14.0011 2.90998 13.9331 3.25425 13.8001 3.57536C13.6671 3.89646 13.4718 4.18802 13.2255 4.43318L12.8335 4.82518C12.6141 5.04302 12.3178 5.16563 12.0086 5.16643H11.0835V5.74977C11.0835 6.05919 10.9606 6.35593 10.7418 6.57473C10.523 6.79352 10.2262 6.91643 9.91682 6.91643H9.33348V7.8416C9.3339 7.99486 9.3039 8.14669 9.24522 8.28827C9.18654 8.42986 9.10036 8.55839 8.99165 8.66643L8.61248 9.0456C8.80671 9.78882 8.79724 10.5706 8.58507 11.3089C8.34632 12.1501 7.86191 12.9009 7.1939 13.4651C6.52588 14.0293 5.70466 14.3812 4.8354 14.4759C4.68346 14.4916 4.53082 14.4996 4.37807 14.4998ZM4.37807 6.91643C3.78082 6.91586 3.19527 7.082 2.68733 7.39616C2.17938 7.71032 1.76921 8.16003 1.50299 8.69466C1.23677 9.22929 1.12507 9.82761 1.18045 10.4223C1.23584 11.017 1.45611 11.5844 1.81649 12.0606C2.17686 12.5369 2.66302 12.9031 3.22024 13.1181C3.77746 13.3331 4.38363 13.3882 4.97049 13.2773C5.55736 13.1665 6.10163 12.894 6.54204 12.4906C6.98245 12.0872 7.30152 11.5688 7.46332 10.9939C7.64531 10.3619 7.62492 9.68878 7.40498 9.06893C7.36909 8.96542 7.36308 8.85388 7.38763 8.74711C7.41218 8.64033 7.46631 8.54263 7.54382 8.46518L8.16682 7.8416V6.91643C8.16682 6.60701 8.28973 6.31027 8.50852 6.09148C8.72732 5.87268 9.02406 5.74977 9.33348 5.74977H9.91682V5.16643C9.91682 4.85701 10.0397 4.56027 10.2585 4.34148C10.4773 4.12268 10.7741 3.99977 11.0835 3.99977H12.0086L12.4006 3.60777C12.5383 3.47077 12.6474 3.30785 12.7217 3.12843C12.796 2.949 12.834 2.75663 12.8335 2.56243C12.8333 2.32495 12.739 2.09722 12.5711 1.92924C12.4032 1.76126 12.1756 1.66674 11.9381 1.66643C11.7437 1.66596 11.5512 1.70402 11.3717 1.77841C11.1922 1.85281 11.0292 1.96206 10.8921 2.09985L6.0324 6.95902C5.95484 7.03653 5.85701 7.09062 5.75012 7.11507C5.64323 7.13952 5.53161 7.13335 5.42807 7.09727C5.08977 6.97816 4.7338 6.91702 4.37515 6.91643H4.37807ZM2.91682 10.9998C2.91682 11.1151 2.95103 11.2279 3.01513 11.3239C3.07922 11.4198 3.17033 11.4945 3.27692 11.5387C3.38351 11.5828 3.5008 11.5944 3.61395 11.5719C3.72711 11.5494 3.83105 11.4938 3.91263 11.4122C3.99421 11.3307 4.04977 11.2267 4.07227 11.1136C4.09478 11.0004 4.08323 10.8831 4.03908 10.7765C3.99493 10.6699 3.92016 10.5788 3.82423 10.5147C3.7283 10.4506 3.61552 10.4164 3.50015 10.4164C3.34544 10.4164 3.19707 10.4779 3.08767 10.5873C2.97827 10.6967 2.91682 10.8451 2.91682 10.9998Z" fill="#D2D2D5"/>
</g>
<defs>
<clipPath id="clip0_265_6800">
<rect width="14" height="14" fill="white" transform="translate(0 0.5)"/>
</clipPath>
</defs>
</svg>
