<svg width="14" height="14" viewBox="0 0 14 14" fill="none" xmlns="http://www.w3.org/2000/svg">
<g clip-path="url(#clip0_413_89)">
<path d="M6.99971 1.16664C7.77351 1.16918 8.53912 1.32516 9.25223 1.62555C9.96535 1.92593 10.6118 2.36476 11.1542 2.91664H9.33304C9.17833 2.91664 9.02996 2.9781 8.92057 3.0875C8.81117 3.1969 8.74971 3.34527 8.74971 3.49998C8.74971 3.65469 8.81117 3.80306 8.92057 3.91246C9.02996 4.02185 9.17833 4.08331 9.33304 4.08331H11.7498C12.037 4.08316 12.3125 3.96898 12.5156 3.76586C12.7187 3.56275 12.8329 3.28731 12.833 3.00006V0.583311C12.833 0.428602 12.7716 0.280228 12.6622 0.170832C12.5528 0.061436 12.4044 -2.21263e-05 12.2497 -2.21263e-05C12.095 -2.21263e-05 11.9466 0.061436 11.8372 0.170832C11.7278 0.280228 11.6664 0.428602 11.6664 0.583311V1.79548C10.7022 0.927159 9.51539 0.344384 8.23877 0.112415C6.96215 -0.119554 5.64616 0.00844318 4.43817 0.482072C3.23018 0.955701 2.17789 1.75626 1.39913 2.7941C0.620382 3.83194 0.145919 5.06608 0.0288779 6.35831C0.0213432 6.43954 0.0308121 6.52146 0.0566813 6.59883C0.0825504 6.6762 0.124253 6.74734 0.179131 6.8077C0.234009 6.86807 0.30086 6.91634 0.375423 6.94945C0.449987 6.98255 0.530629 6.99976 0.612211 6.99998C0.754887 7.0018 0.893106 6.9503 0.999812 6.85557C1.10652 6.76084 1.17403 6.6297 1.18913 6.48781C1.31899 5.03575 1.98711 3.68472 3.06226 2.70013C4.1374 1.71555 5.54185 1.16857 6.99971 1.16664Z" fill="#777980"/>
<path d="M13.3884 7.00011C13.2457 6.99829 13.1075 7.04979 13.0008 7.14451C12.8941 7.23924 12.8266 7.37039 12.8115 7.51228C12.7151 8.6225 12.3022 9.68176 11.6219 10.5644C10.9415 11.447 10.0223 12.116 8.97325 12.4919C7.92417 12.8679 6.78927 12.935 5.7032 12.6853C4.61712 12.4357 3.62545 11.8797 2.84583 11.0835H4.66699C4.8217 11.0835 4.97008 11.022 5.07947 10.9126C5.18887 10.8032 5.25033 10.6548 5.25033 10.5001C5.25033 10.3454 5.18887 10.197 5.07947 10.0876C4.97008 9.97824 4.8217 9.91678 4.66699 9.91678H2.25024C2.10797 9.9167 1.96707 9.94467 1.83561 9.99908C1.70415 10.0535 1.5847 10.1333 1.4841 10.2339C1.38349 10.3345 1.3037 10.4539 1.24929 10.5854C1.19488 10.7169 1.16692 10.8578 1.16699 11V13.4168C1.16699 13.5715 1.22845 13.7199 1.33785 13.8293C1.44724 13.9387 1.59562 14.0001 1.75033 14.0001C1.90504 14.0001 2.05341 13.9387 2.1628 13.8293C2.2722 13.7199 2.33366 13.5715 2.33366 13.4168V12.2046C3.29781 13.0729 4.48465 13.6557 5.76127 13.8877C7.03789 14.1197 8.35388 13.9917 9.56187 13.518C10.7699 13.0444 11.8222 12.2438 12.6009 11.206C13.3797 10.1682 13.8541 8.93401 13.9712 7.64178C13.9787 7.56054 13.9692 7.47863 13.9434 7.40126C13.9175 7.32388 13.8758 7.25275 13.8209 7.19238C13.766 7.13202 13.6992 7.08374 13.6246 7.05064C13.5501 7.01754 13.4694 7.00033 13.3878 7.00011H13.3884Z" fill="#777980"/>
</g>
<defs>
<clipPath id="clip0_413_89">
<rect width="14" height="14" fill="white"/>
</clipPath>
</defs>
</svg>
