<svg width="16" height="16" viewBox="0 0 16 16" fill="none" xmlns="http://www.w3.org/2000/svg">
<path d="M6.52441 9.47587L14.6299 1.37036" stroke="#777980" stroke-width="1.04167" stroke-linecap="round" stroke-linejoin="round"/>
<path d="M14.6318 1.37036L9.84222 14.6339C9.80989 14.7045 9.75798 14.7643 9.69267 14.8062C9.62736 14.8481 9.55139 14.8704 9.47378 14.8704C9.39618 14.8704 9.32021 14.8481 9.2549 14.8062C9.18959 14.7643 9.13768 14.7045 9.10535 14.6339L6.52633 9.47587L1.36827 6.89685C1.29773 6.86452 1.23794 6.81261 1.19603 6.7473C1.15412 6.68199 1.13184 6.60602 1.13184 6.52841C1.13184 6.45081 1.15412 6.37484 1.19603 6.30953C1.23794 6.24421 1.29773 6.19231 1.36827 6.15998L14.6318 1.37036Z" stroke="#777980" stroke-width="1.04167" stroke-linecap="round" stroke-linejoin="round"/>
</svg>
