<svg width="14" height="15" viewBox="0 0 14 15" fill="none" xmlns="http://www.w3.org/2000/svg">
<g clip-path="url(#clip0_413_4734)">
<path d="M7.00033 5.16699C6.53884 5.16699 6.08771 5.30384 5.704 5.56023C5.32028 5.81662 5.02121 6.18104 4.84461 6.6074C4.668 7.03376 4.6218 7.50291 4.71183 7.95554C4.80186 8.40816 5.02409 8.82392 5.35041 9.15024C5.67673 9.47656 6.09249 9.69879 6.54512 9.78883C6.99774 9.87886 7.46689 9.83265 7.89325 9.65604C8.31962 9.47944 8.68403 9.18037 8.94042 8.79666C9.19681 8.41294 9.33366 7.96182 9.33366 7.50033C9.33366 6.88149 9.08783 6.28799 8.65024 5.85041C8.21266 5.41282 7.61917 5.16699 7.00033 5.16699ZM7.00033 8.66699C6.76958 8.66699 6.54402 8.59857 6.35216 8.47037C6.1603 8.34218 6.01077 8.15997 5.92247 7.94679C5.83416 7.73361 5.81106 7.49903 5.85608 7.27272C5.90109 7.04641 6.01221 6.83853 6.17537 6.67537C6.33853 6.51221 6.54641 6.40109 6.77272 6.35608C6.99903 6.31106 7.23361 6.33416 7.44679 6.42247C7.65997 6.51077 7.84218 6.6603 7.97037 6.85216C8.09857 7.04402 8.16699 7.26958 8.16699 7.50033C8.16699 7.80974 8.04408 8.10649 7.82528 8.32528C7.60649 8.54408 7.30975 8.66699 7.00033 8.66699Z" fill="#241E26"/>
<path d="M12.4217 8.60833L12.1627 8.459C12.2793 7.82459 12.2793 7.17424 12.1627 6.53983L12.4217 6.3905C12.6209 6.27559 12.7955 6.12258 12.9355 5.9402C13.0755 5.75782 13.1783 5.54965 13.2379 5.32756C13.2975 5.10547 13.3127 4.87383 13.2828 4.64584C13.2528 4.41786 13.1783 4.198 13.0634 3.99883C12.9485 3.79966 12.7955 3.62507 12.6131 3.48504C12.4307 3.345 12.2225 3.24225 12.0004 3.18267C11.7783 3.12309 11.5467 3.10783 11.3187 3.13777C11.0907 3.16771 10.8709 3.24226 10.6717 3.35717L10.4121 3.50708C9.92185 3.0882 9.35843 2.76348 8.75021 2.54925V2.25C8.75021 1.78587 8.56583 1.34075 8.23765 1.01256C7.90946 0.684374 7.46434 0.5 7.00021 0.5C6.53608 0.5 6.09096 0.684374 5.76277 1.01256C5.43458 1.34075 5.25021 1.78587 5.25021 2.25V2.54925C4.64202 2.76425 4.07879 3.08977 3.58887 3.50942L3.32812 3.35833C2.92588 3.12627 2.44792 3.0635 1.9994 3.18384C1.55087 3.30417 1.16852 3.59775 0.936458 4C0.704394 4.40224 0.641625 4.8802 0.761961 5.32873C0.882297 5.77725 1.17588 6.1596 1.57812 6.39167L1.83712 6.541C1.72052 7.17541 1.72052 7.82576 1.83712 8.46017L1.57812 8.6095C1.17588 8.84156 0.882297 9.22392 0.761961 9.67244C0.641625 10.121 0.704394 10.5989 0.936458 11.0012C1.16852 11.4034 1.55087 11.697 1.9994 11.8173C2.44792 11.9377 2.92588 11.8749 3.32812 11.6428L3.58771 11.4929C4.07815 11.9119 4.64178 12.2366 5.25021 12.4507V12.75C5.25021 13.2141 5.43458 13.6592 5.76277 13.9874C6.09096 14.3156 6.53608 14.5 7.00021 14.5C7.46434 14.5 7.90946 14.3156 8.23765 13.9874C8.56583 13.6592 8.75021 13.2141 8.75021 12.75V12.4507C9.3584 12.2358 9.92163 11.9102 10.4115 11.4906L10.6723 11.6411C11.0745 11.8731 11.5525 11.9359 12.001 11.8156C12.4495 11.6952 12.8319 11.4017 13.064 10.9994C13.296 10.5972 13.3588 10.1192 13.2385 9.67069C13.1181 9.22217 12.8245 8.83981 12.4223 8.60775L12.4217 8.60833ZM10.9354 6.40567C11.1329 7.12145 11.1329 7.87738 10.9354 8.59317C10.9009 8.71775 10.9087 8.85026 10.9577 8.96989C11.0067 9.08952 11.0941 9.18948 11.206 9.25408L11.8384 9.61925C11.9724 9.6966 12.0703 9.82404 12.1104 9.97353C12.1505 10.123 12.1295 10.2823 12.0522 10.4164C11.9748 10.5504 11.8474 10.6483 11.6979 10.6884C11.5484 10.7285 11.3891 10.7075 11.255 10.6302L10.6215 10.2638C10.5095 10.1989 10.379 10.1732 10.2507 10.1906C10.1224 10.208 10.0035 10.2676 9.91279 10.3601C9.39357 10.8901 8.73946 11.2683 8.02104 11.4538C7.89564 11.4861 7.78454 11.5591 7.70522 11.6615C7.62591 11.7638 7.58289 11.8896 7.58296 12.0191V12.75C7.58296 12.9047 7.5215 13.0531 7.4121 13.1625C7.30271 13.2719 7.15433 13.3333 6.99962 13.3333C6.84491 13.3333 6.69654 13.2719 6.58715 13.1625C6.47775 13.0531 6.41629 12.9047 6.41629 12.75V12.0197C6.41636 11.8902 6.37334 11.7644 6.29403 11.662C6.21471 11.5597 6.10361 11.4867 5.97821 11.4544C5.25974 11.2681 4.60582 10.8891 4.08704 10.3583C3.99635 10.2659 3.87747 10.2063 3.74915 10.1888C3.62083 10.1714 3.49035 10.1972 3.37829 10.2621L2.74596 10.6278C2.67959 10.6667 2.60619 10.6921 2.52996 10.7026C2.45374 10.713 2.37621 10.7082 2.30184 10.6886C2.22746 10.6689 2.15771 10.6347 2.0966 10.588C2.03549 10.5413 1.98423 10.4829 1.94576 10.4163C1.9073 10.3497 1.88239 10.2761 1.87247 10.1998C1.86256 10.1235 1.86783 10.046 1.88799 9.97176C1.90814 9.89752 1.94278 9.828 1.98992 9.7672C2.03705 9.7064 2.09575 9.65552 2.16262 9.6175L2.79496 9.25233C2.90693 9.18773 2.99427 9.08777 3.04326 8.96814C3.09225 8.84851 3.10012 8.716 3.06562 8.59142C2.86808 7.87563 2.86808 7.1197 3.06562 6.40392C3.0995 6.2796 3.09125 6.14756 3.04218 6.02842C2.99311 5.90928 2.90598 5.80974 2.79437 5.74533L2.16204 5.38017C2.02799 5.30281 1.93015 5.17537 1.89006 5.02588C1.84996 4.87639 1.87089 4.7171 1.94825 4.58304C2.0256 4.44899 2.15304 4.35115 2.30253 4.31106C2.45202 4.27096 2.61132 4.29189 2.74537 4.36925L3.37887 4.73558C3.49063 4.80063 3.62083 4.82671 3.74902 4.80971C3.8772 4.79271 3.99611 4.7336 4.08704 4.64167C4.60626 4.11162 5.26037 3.73343 5.97879 3.54792C6.10458 3.51558 6.21597 3.44219 6.29533 3.33938C6.37468 3.23656 6.41746 3.11021 6.41687 2.98033V2.25C6.41687 2.09529 6.47833 1.94692 6.58773 1.83752C6.69713 1.72812 6.8455 1.66667 7.00021 1.66667C7.15492 1.66667 7.30329 1.72812 7.41269 1.83752C7.52208 1.94692 7.58354 2.09529 7.58354 2.25V2.98033C7.58348 3.10981 7.62649 3.23563 7.7058 3.33796C7.78512 3.4403 7.89623 3.51334 8.02162 3.54558C8.7403 3.73176 9.39444 4.11077 9.91337 4.64167C10.0041 4.73411 10.1229 4.79374 10.2513 4.81116C10.3796 4.82859 10.5101 4.80282 10.6221 4.73792L11.2545 4.37217C11.3208 4.33326 11.3942 4.30786 11.4705 4.29744C11.5467 4.28702 11.6242 4.29178 11.6986 4.31144C11.773 4.33111 11.8427 4.36529 11.9038 4.41202C11.9649 4.45875 12.0162 4.5171 12.0547 4.58373C12.0931 4.65035 12.118 4.72392 12.1279 4.80021C12.1379 4.8765 12.1326 4.95399 12.1124 5.02824C12.0923 5.10248 12.0576 5.172 12.0105 5.2328C11.9634 5.2936 11.9047 5.34448 11.8378 5.3825L11.2055 5.74767C11.0941 5.81224 11.0072 5.91186 10.9583 6.03099C10.9095 6.15012 10.9014 6.28206 10.9354 6.40625V6.40567Z" fill="#241E26"/>
</g>
<defs>
<clipPath id="clip0_413_4734">
<rect width="14" height="14" fill="white" transform="translate(0 0.5)"/>
</clipPath>
</defs>
</svg>
