<svg width="14" height="14" viewBox="0 0 14 14" fill="none" xmlns="http://www.w3.org/2000/svg">
<g clip-path="url(#clip0_413_92)">
<path d="M11.2774 8.55608C10.8364 8.55644 10.4021 8.66411 10.0119 8.8698C9.62175 9.0755 9.28751 9.37304 9.03803 9.73674L5.24111 8.02233C5.51079 7.37111 5.51184 6.63965 5.24403 5.98766L9.03569 4.26449C9.40545 4.79927 9.95463 5.18381 10.5836 5.34835C11.2126 5.5129 11.8797 5.44656 12.464 5.16137C13.0483 4.87618 13.511 4.39102 13.7682 3.7939C14.0254 3.19678 14.0601 2.52725 13.8659 1.90676C13.6718 1.28627 13.2616 0.755917 12.7099 0.411901C12.1583 0.0678856 11.5015 -0.0670052 10.8589 0.0316969C10.2163 0.130399 9.63034 0.456156 9.20733 0.949879C8.78431 1.4436 8.55227 2.07259 8.55328 2.72274C8.55575 2.87663 8.57136 3.03002 8.59994 3.18124L4.56911 5.01291C4.18197 4.65021 3.69732 4.40848 3.17469 4.31744C2.65207 4.2264 2.11423 4.29 1.62725 4.50043C1.14027 4.71086 0.725365 5.05896 0.433507 5.50196C0.141648 5.94495 -0.0144528 6.46356 -0.0156184 6.99406C-0.016784 7.52455 0.137036 8.04384 0.426946 8.48812C0.716855 8.93239 1.13023 9.28231 1.61627 9.49488C2.10232 9.70745 2.63988 9.77341 3.1629 9.68467C3.68592 9.59592 4.17163 9.35633 4.56036 8.99533L8.60169 10.82C8.57362 10.9711 8.55821 11.1243 8.55561 11.2779C8.55549 11.8164 8.71508 12.3428 9.01418 12.7906C9.31327 13.2384 9.73845 13.5874 10.2359 13.7936C10.7334 13.9997 11.2808 14.0537 11.809 13.9486C12.3372 13.8436 12.8223 13.5843 13.2031 13.2035C13.5838 12.8228 13.8431 12.3376 13.9482 11.8095C14.0532 11.2813 13.9992 10.7339 13.7931 10.2364C13.587 9.73892 13.2379 9.31374 12.7902 9.01464C12.3424 8.71555 11.8159 8.55596 11.2774 8.55608ZM11.2774 1.16699C11.5852 1.16688 11.886 1.25802 12.1419 1.4289C12.3978 1.59978 12.5973 1.84271 12.7152 2.12698C12.833 2.41125 12.8639 2.72407 12.804 3.0259C12.744 3.32772 12.5959 3.60499 12.3783 3.82262C12.1608 4.04025 11.8836 4.18848 11.5818 4.24856C11.28 4.30863 10.9671 4.27786 10.6828 4.16013C10.3985 4.04239 10.1555 3.84299 9.98451 3.58713C9.81353 3.33128 9.72228 3.03047 9.72228 2.72274C9.72258 2.31033 9.88651 1.91489 10.1781 1.62321C10.4696 1.33153 10.865 1.16746 11.2774 1.16699ZM2.72228 8.55608C2.41455 8.55619 2.11371 8.46505 1.85779 8.29417C1.60187 8.12329 1.40237 7.88036 1.28453 7.59609C1.16669 7.31183 1.1358 6.999 1.19576 6.69717C1.25573 6.39535 1.40385 6.11809 1.6214 5.90045C1.83896 5.68282 2.11616 5.53459 2.41797 5.47451C2.71977 5.41444 3.03261 5.44521 3.31692 5.56295C3.60123 5.68068 3.84424 5.88008 4.01521 6.13594C4.18618 6.39179 4.27744 6.6926 4.27744 7.00033C4.27698 7.41269 4.113 7.80805 3.82147 8.09969C3.52994 8.39133 3.13464 8.55546 2.72228 8.55608ZM11.2774 12.8337C10.9697 12.8337 10.669 12.7424 10.4131 12.5715C10.1573 12.4005 9.95787 12.1575 9.84012 11.8733C9.72237 11.589 9.69156 11.2762 9.75159 10.9744C9.81161 10.6726 9.95978 10.3954 10.1774 10.1778C10.3949 9.96025 10.6721 9.81208 10.9739 9.75206C11.2757 9.69203 11.5885 9.72283 11.8728 9.84059C12.1571 9.95834 12.4001 10.1577 12.571 10.4136C12.7419 10.6694 12.8332 10.9702 12.8332 11.2779C12.8329 11.6904 12.6689 12.086 12.3772 12.3777C12.0855 12.6693 11.69 12.8334 11.2774 12.8337Z" fill="#777980"/>
</g>
<defs>
<clipPath id="clip0_413_92">
<rect width="14" height="14" fill="white"/>
</clipPath>
</defs>
</svg>
