<svg width="34" height="34" viewBox="0 0 34 34" fill="none" xmlns="http://www.w3.org/2000/svg">
<rect x="0.5" y="0.5" width="33" height="33" rx="16.5" stroke="white"/>
<path d="M20.4997 17C20.4968 16.6931 20.3732 16.3997 20.1555 16.1833L17.653 13.675C17.5437 13.5664 17.3959 13.5054 17.2418 13.5054C17.0876 13.5054 16.9398 13.5664 16.8305 13.675C16.7758 13.7292 16.7324 13.7937 16.7028 13.8648C16.6732 13.9359 16.658 14.0122 16.658 14.0892C16.658 14.1662 16.6732 14.2424 16.7028 14.3135C16.7324 14.3846 16.7758 14.4491 16.8305 14.5033L18.7497 16.4167H12.9163C12.7616 16.4167 12.6133 16.4781 12.5039 16.5875C12.3945 16.6969 12.333 16.8453 12.333 17C12.333 17.1547 12.3945 17.3031 12.5039 17.4125C12.6133 17.5219 12.7616 17.5833 12.9163 17.5833H18.7497L16.8305 19.5025C16.7207 19.6116 16.6586 19.7598 16.6581 19.9146C16.6576 20.0694 16.7185 20.2181 16.8276 20.3279C16.9367 20.4378 17.0849 20.4998 17.2397 20.5003C17.3945 20.5009 17.5432 20.4399 17.653 20.3308L20.1555 17.8225C20.3746 17.6047 20.4984 17.3089 20.4997 17Z" fill="white"/>
</svg>
