<svg width="34" height="34" viewBox="0 0 34 34" fill="none" xmlns="http://www.w3.org/2000/svg">
<rect x="0.5" y="0.5" width="33" height="33" rx="16.5" stroke="white"/>
<path d="M13.5003 17C13.5032 17.3069 13.6268 17.6003 13.8445 17.8167L16.347 20.325C16.4563 20.4336 16.6041 20.4946 16.7582 20.4946C16.9124 20.4946 17.0602 20.4336 17.1695 20.325C17.2242 20.2708 17.2676 20.2063 17.2972 20.1352C17.3268 20.0641 17.342 19.9878 17.342 19.9108C17.342 19.8338 17.3268 19.7576 17.2972 19.6865C17.2676 19.6154 17.2242 19.5509 17.1695 19.4967L15.2503 17.5833H21.0837C21.2384 17.5833 21.3867 17.5219 21.4961 17.4125C21.6055 17.3031 21.667 17.1547 21.667 17C21.667 16.8453 21.6055 16.6969 21.4961 16.5875C21.3867 16.4781 21.2384 16.4167 21.0837 16.4167H15.2503L17.1695 14.4975C17.2793 14.3884 17.3414 14.2402 17.3419 14.0854C17.3424 13.9306 17.2815 13.7819 17.1724 13.6721C17.0633 13.5622 16.9151 13.5002 16.7603 13.4997C16.6055 13.4991 16.4568 13.5601 16.347 13.6692L13.8445 16.1775C13.6254 16.3953 13.5016 16.6911 13.5003 17Z" fill="white"/>
</svg>
