<svg width="14" height="14" viewBox="0 0 14 14" fill="none" xmlns="http://www.w3.org/2000/svg">
<g clip-path="url(#clip0_413_4719)">
<path d="M11.0833 0.583374H2.91667C2.1434 0.5843 1.40208 0.891889 0.855295 1.43867C0.308514 1.98545 0.00092625 2.72678 0 3.50004L0 10.5C0.00092625 11.2733 0.308514 12.0146 0.855295 12.5614C1.40208 13.1082 2.1434 13.4158 2.91667 13.4167H11.0833C11.8566 13.4158 12.5979 13.1082 13.1447 12.5614C13.6915 12.0146 13.9991 11.2733 14 10.5V3.50004C13.9991 2.72678 13.6915 1.98545 13.1447 1.43867C12.5979 0.891889 11.8566 0.5843 11.0833 0.583374ZM2.91667 1.75004H11.0833C11.5475 1.75004 11.9926 1.93442 12.3208 2.2626C12.649 2.59079 12.8333 3.03591 12.8333 3.50004V4.08337H1.16667V3.50004C1.16667 3.03591 1.35104 2.59079 1.67923 2.2626C2.00742 1.93442 2.45254 1.75004 2.91667 1.75004ZM11.0833 12.25H2.91667C2.45254 12.25 2.00742 12.0657 1.67923 11.7375C1.35104 11.4093 1.16667 10.9642 1.16667 10.5V5.25004H12.8333V10.5C12.8333 10.9642 12.649 11.4093 12.3208 11.7375C11.9926 12.0657 11.5475 12.25 11.0833 12.25ZM11.0833 7.58337C11.0833 7.73808 11.0219 7.88646 10.9125 7.99585C10.8031 8.10525 10.6547 8.16671 10.5 8.16671H3.5C3.34529 8.16671 3.19692 8.10525 3.08752 7.99585C2.97812 7.88646 2.91667 7.73808 2.91667 7.58337C2.91667 7.42866 2.97812 7.28029 3.08752 7.1709C3.19692 7.0615 3.34529 7.00004 3.5 7.00004H10.5C10.6547 7.00004 10.8031 7.0615 10.9125 7.1709C11.0219 7.28029 11.0833 7.42866 11.0833 7.58337ZM8.75 9.91671C8.75 10.0714 8.68854 10.2198 8.57915 10.3292C8.46975 10.4386 8.32138 10.5 8.16667 10.5H3.5C3.34529 10.5 3.19692 10.4386 3.08752 10.3292C2.97812 10.2198 2.91667 10.0714 2.91667 9.91671C2.91667 9.762 2.97812 9.61362 3.08752 9.50423C3.19692 9.39483 3.34529 9.33337 3.5 9.33337H8.16667C8.32138 9.33337 8.46975 9.39483 8.57915 9.50423C8.68854 9.61362 8.75 9.762 8.75 9.91671ZM1.75 2.91671C1.75 2.80134 1.78421 2.68855 1.84831 2.59262C1.91241 2.4967 2.00351 2.42193 2.1101 2.37778C2.21669 2.33363 2.33398 2.32207 2.44714 2.34458C2.56029 2.36709 2.66423 2.42265 2.74581 2.50423C2.82739 2.58581 2.88295 2.68975 2.90546 2.8029C2.92797 2.91606 2.91641 3.03335 2.87226 3.13994C2.82811 3.24653 2.75334 3.33763 2.65742 3.40173C2.56149 3.46583 2.44871 3.50004 2.33333 3.50004C2.17862 3.50004 2.03025 3.43858 1.92085 3.32919C1.81146 3.21979 1.75 3.07142 1.75 2.91671ZM3.5 2.91671C3.5 2.80134 3.53421 2.68855 3.59831 2.59262C3.66241 2.4967 3.75351 2.42193 3.8601 2.37778C3.96669 2.33363 4.08398 2.32207 4.19714 2.34458C4.31029 2.36709 4.41423 2.42265 4.49581 2.50423C4.57739 2.58581 4.63295 2.68975 4.65546 2.8029C4.67797 2.91606 4.66641 3.03335 4.62226 3.13994C4.57811 3.24653 4.50334 3.33763 4.40742 3.40173C4.31149 3.46583 4.19871 3.50004 4.08333 3.50004C3.92862 3.50004 3.78025 3.43858 3.67085 3.32919C3.56146 3.21979 3.5 3.07142 3.5 2.91671ZM5.25 2.91671C5.25 2.80134 5.28421 2.68855 5.34831 2.59262C5.41241 2.4967 5.50351 2.42193 5.6101 2.37778C5.71669 2.33363 5.83398 2.32207 5.94714 2.34458C6.06029 2.36709 6.16423 2.42265 6.24581 2.50423C6.32739 2.58581 6.38295 2.68975 6.40546 2.8029C6.42797 2.91606 6.41641 3.03335 6.37226 3.13994C6.32811 3.24653 6.25334 3.33763 6.15742 3.40173C6.06149 3.46583 5.94871 3.50004 5.83333 3.50004C5.67862 3.50004 5.53025 3.43858 5.42085 3.32919C5.31146 3.21979 5.25 3.07142 5.25 2.91671Z" fill="#241E26"/>
</g>
<defs>
<clipPath id="clip0_413_4719">
<rect width="14" height="14" fill="white"/>
</clipPath>
</defs>
</svg>
