<svg width="16" height="16" viewBox="0 0 16 16" fill="none" xmlns="http://www.w3.org/2000/svg">
<path d="M1.25293 14.7471L2.4899 11.8983C1.54355 10.5549 1.11999 8.91236 1.29869 7.27886C1.4774 5.64536 2.24609 4.13323 3.46052 3.02623C4.67494 1.91924 6.25161 1.29349 7.89463 1.26642C9.53765 1.23935 11.1341 1.81281 12.3843 2.87919C13.6346 3.94556 14.4526 5.43155 14.6851 7.05827C14.9175 8.685 14.5483 10.3406 13.6467 11.7145C12.7451 13.0883 11.3732 14.0859 9.78833 14.52C8.20347 14.9541 6.51465 14.795 5.03881 14.0724L1.25293 14.7471Z" stroke="#777980" stroke-width="1.25" stroke-linecap="round" stroke-linejoin="round"/>
<path d="M5.74805 6.50062C5.74805 6.60003 5.78754 6.69537 5.85783 6.76567C5.92813 6.83597 6.02347 6.87546 6.12289 6.87546C6.2223 6.87546 6.31764 6.83597 6.38794 6.76567C6.45824 6.69537 6.49773 6.60003 6.49773 6.50062V5.75094C6.49773 5.65152 6.45824 5.55618 6.38794 5.48589C6.31764 5.41559 6.2223 5.3761 6.12289 5.3761C6.02347 5.3761 5.92813 5.41559 5.85783 5.48589C5.78754 5.55618 5.74805 5.65152 5.74805 5.75094V6.50062ZM5.74805 6.50062C5.74805 7.49476 6.14297 8.44818 6.84593 9.15114C7.54889 9.8541 8.50231 10.249 9.49645 10.249M9.49645 10.249H10.2461C10.3455 10.249 10.4409 10.2095 10.5112 10.1392C10.5815 10.0689 10.621 9.97359 10.621 9.87418C10.621 9.77476 10.5815 9.67942 10.5112 9.60913C10.4409 9.53883 10.3455 9.49934 10.2461 9.49934H9.49645C9.39703 9.49934 9.30169 9.53883 9.23139 9.60913C9.1611 9.67942 9.12161 9.77476 9.12161 9.87418C9.12161 9.97359 9.1611 10.0689 9.23139 10.1392C9.30169 10.2095 9.39703 10.249 9.49645 10.249Z" stroke="#777980" stroke-width="1.24947" stroke-linecap="round" stroke-linejoin="round"/>
</svg>
